<?xml version="1.0" encoding="UTF-8" standalone="no"?>
<svg
   xmlns:dc="http://purl.org/dc/elements/1.1/"
   xmlns:cc="http://creativecommons.org/ns#"
   xmlns:rdf="http://www.w3.org/1999/02/22-rdf-syntax-ns#"
   xmlns:svg="http://www.w3.org/2000/svg"
   xmlns="http://www.w3.org/2000/svg"
   version="1.1"
   id="svg2"
   viewBox="0 0 744.09448819 1052.3622047"
   height="297mm"
   width="210mm">
  <defs
     id="defs4" />
  <metadata
     id="metadata7">
    <rdf:RDF>
      <cc:Work
         rdf:about="">
        <dc:format>image/svg+xml</dc:format>
        <dc:type
           rdf:resource="http://purl.org/dc/dcmitype/StillImage" />
        <dc:title></dc:title>
      </cc:Work>
    </rdf:RDF>
  </metadata>
  <g
     style="display:inline"
     id="layer1">
    <g
       id="g5599">
      <path
         id="path4330"
         d="m 252.24084,557.43939 c 7.72781,-12.6024 28.45675,-24.12456 29.16417,-40.83679 0.94651,-22.36015 -34.90281,-35.36867 -34.2633,-57.7397 0.61884,-21.6481 37.11844,-32.24726 36.29379,-53.88851 -0.71363,-18.72815 -26.82471,-33.41477 -34.86616,-44.10928 -8.04144,-10.69452 2.31485,-31.52606 2.31485,-31.52606 8.11636,-1.66464 16.78232,-2.13144 25.16765,-2.13144 73.59889,0 133.26257,59.66368 133.26257,133.26257 10e-6,73.59889 -59.66368,133.26258 -133.26257,133.26258 -7.27894,0 -14.42158,-0.58359 -20.43483,-1.51065 0,0 -12.97903,-19.12253 -3.37617,-34.78272 z"
         style="fill:#eaab00;fill-opacity:1;fill-rule:evenodd;stroke:#000000;stroke-width:3;stroke-linecap:butt;stroke-linejoin:miter;stroke-miterlimit:4;stroke-dasharray:none;stroke-opacity:1" />
      <path
         style="fill:#0063a6;fill-opacity:1;fill-rule:evenodd;stroke:#000000;stroke-width:3;stroke-linecap:butt;stroke-linejoin:bevel;stroke-miterlimit:4;stroke-dasharray:none;stroke-opacity:1"
         d="m 248.56934,360.86511 c 8.04145,10.69451 34.15253,25.38113 34.86616,44.10928 0.82465,21.64125 -35.67495,32.24041 -36.29379,53.88851 -0.63951,22.37103 35.20981,35.37955 34.2633,57.7397 -0.70742,16.71223 -21.43636,28.23439 -29.16417,40.83679 -9.60286,15.66019 3.6723,34.84644 3.6723,34.84644 -63.77816,-10.20959 -112.83928,-65.67593 -112.83928,-131.99588 0,-65.21356 45.4583,-118.56335 107.18343,-130.88717 0,0 -9.72939,20.76781 -1.68795,31.46233 z"
         id="path4267" />
      <circle
         r="29.76655"
         cy="524.48828"
         cx="336.7482"
         id="circle4148"
         style="fill:#0063a6;fill-opacity:1;fill-rule:evenodd;stroke:#000000;stroke-width:3;stroke-linecap:butt;stroke-linejoin:miter;stroke-miterlimit:4;stroke-dasharray:none;stroke-opacity:1" />
      <circle
         style="fill:#eaab00;fill-opacity:1;fill-rule:evenodd;stroke:#000000;stroke-width:3;stroke-linecap:butt;stroke-linejoin:miter;stroke-miterlimit:4;stroke-dasharray:none;stroke-opacity:1"
         id="circle4150"
         cx="228.01099"
         cy="524.28961"
         r="16.028141" />
      <circle
         cy="354.05276"
         cx="283.50525"
         id="circle4152"
         style="fill:#0063a6;fill-opacity:1;fill-rule:evenodd;stroke:#000000;stroke-width:3;stroke-linecap:butt;stroke-linejoin:miter;stroke-miterlimit:4;stroke-dasharray:none;stroke-opacity:1"
         r="16.028141" />
      <circle
         style="fill:#e8ab00;fill-opacity:1;fill-rule:evenodd;stroke:#000000;stroke-width:3;stroke-linecap:butt;stroke-linejoin:miter;stroke-miterlimit:4;stroke-dasharray:none;stroke-opacity:1"
         id="circle4154"
         cx="212.23099"
         cy="394.96094"
         r="26.102976" />
      <circle
         cy="397.35556"
         cx="345.21216"
         id="circle4158"
         style="fill:#0063a6;fill-opacity:1;fill-rule:evenodd;stroke:#000000;stroke-width:3;stroke-linecap:butt;stroke-linejoin:miter;stroke-miterlimit:4;stroke-dasharray:none;stroke-opacity:1"
         r="20.510902" />
      <path
         style="fill:none;stroke-width:3;stroke-miterlimit:4;stroke-dasharray:none"
         d="m 205.37234,418.3346 c -14.41253,-4.76524 -21.37636,-20.34695 -15.02792,-33.62526 7.20457,-15.069 26.43567,-18.72936 38.40737,-7.31029 12.64617,12.0624 9.44559,31.77419 -6.42798,39.58872 -3.28053,1.615 -4.20108,1.80878 -9.19498,1.93561 -3.49265,0.0887 -6.36747,-0.12952 -7.75649,-0.58878 z"
         id="path4235" />
      <text
         xml:space="preserve"
         style="font-style:normal;font-weight:normal;font-size:65px;line-height:125%;font-family:sans-serif;letter-spacing:0px;word-spacing:0px;fill:#000000;fill-opacity:1;stroke:none;stroke-width:1px;stroke-linecap:butt;stroke-linejoin:miter;stroke-opacity:1"
         x="30"
         y="332.36221"
         id="text4239"><tspan
           id="tspan4241"
           x="30"
           y="332.36221" /></text>
      <path
         style="fill:none;fill-opacity:1;stroke-width:3;stroke-miterlimit:4;stroke-dasharray:none"
         d="m 341.88742,415.76212 c -5.48812,-0.92888 -10.82617,-5.00669 -13.50588,-10.31733 -1.40335,-2.78117 -1.61286,-3.80378 -1.61778,-7.89643 -0.005,-4.20773 0.1851,-5.089 1.81071,-8.39108 1.97544,-4.01269 4.79824,-6.81515 8.90112,-8.83698 2.0919,-1.03085 3.42296,-1.24167 7.76625,-1.23007 4.42694,0.0118 5.67045,0.22419 8.00042,1.36622 3.68746,1.80741 7.21162,5.43364 9.0096,9.27055 2.09229,4.46497 2.1002,10.63275 0.0193,15.07198 -2.82643,6.02973 -7.58682,9.75436 -13.95809,10.92108 -1.80066,0.32973 -3.41454,0.57032 -3.5864,0.53462 -0.17186,-0.0357 -1.44953,-0.25734 -2.83926,-0.49256 z"
         id="path4249" />
      <path
         style="fill:none;fill-opacity:1;stroke-width:3;stroke-miterlimit:4;stroke-dasharray:none"
         d="m 331.17213,551.96035 c -4.45386,-0.83774 -10.47735,-4.12989 -13.99819,-7.65072 -12.90332,-12.90332 -10.56907,-33.53409 4.92743,-43.54996 4.32596,-2.79601 9.07472,-4.10476 14.86417,-4.09657 20.89212,0.0296 33.96083,21.92733 24.44777,40.96435 -2.25892,4.52041 -7.46146,9.49696 -12.3875,11.8494 -6.09929,2.91272 -11.54467,3.6702 -17.85368,2.4835 z"
         id="path4251" />
      <path
         style="fill:none;fill-opacity:1;stroke-width:3;stroke-miterlimit:4;stroke-dasharray:none"
         d="m 278.50923,367.39742 c -3.69143,-1.35398 -7.48752,-5.44219 -8.59696,-9.25853 -2.99986,-10.31915 6.20689,-20.26483 16.62163,-17.95568 13.03206,2.88946 15.19395,20.45977 3.27295,26.60022 -2.91888,1.50349 -8.1042,1.7853 -11.29762,0.61399 z"
         id="path4253" />
      <text
         xml:space="preserve"
         style="font-style:normal;font-weight:normal;font-size:65px;line-height:125%;font-family:sans-serif;letter-spacing:0px;word-spacing:0px;fill:#ffffff;fill-opacity:1;stroke:#ffffff;stroke-width:2;stroke-linecap:butt;stroke-linejoin:miter;stroke-miterlimit:4;stroke-dasharray:none;stroke-opacity:1"
         x="168.33801"
         y="481.177"
         id="text4220"><tspan
           id="tspan4222"
           x="168.33801"
           y="481.177"
           style="font-style:normal;font-variant:normal;font-weight:500;font-stretch:normal;font-family:Klee;-inkscape-font-specification:'Klee Medium';fill:#ffffff;fill-opacity:1;stroke:#ffffff;stroke-width:2;stroke-miterlimit:4;stroke-dasharray:none;stroke-opacity:1">Py</tspan></text>
      <text
         id="text4243"
         y="481.177"
         x="260.48083"
         style="font-style:normal;font-weight:normal;font-size:65px;line-height:125%;font-family:sans-serif;letter-spacing:0px;word-spacing:0px;fill:#0063a6;fill-opacity:1;stroke:#0063a6;stroke-width:2;stroke-linecap:butt;stroke-linejoin:miter;stroke-miterlimit:4;stroke-dasharray:none;stroke-opacity:1"
         xml:space="preserve"><tspan
           style="font-style:normal;font-variant:normal;font-weight:500;font-stretch:normal;font-family:Klee;-inkscape-font-specification:'Klee Medium';fill:#0063a6;fill-opacity:1;stroke:#0063a6;stroke-width:2;stroke-miterlimit:4;stroke-dasharray:none;stroke-opacity:1"
           y="481.177"
           x="260.48083"
           id="tspan4245">tim</tspan></text>
    </g>
  </g>
</svg>
